<?xml version="1.0" standalone="no"?>
<!DOCTYPE svg PUBLIC "-//W3C//DTD SVG 20010904//EN"
 "http://www.w3.org/TR/2001/REC-SVG-20010904/DTD/svg10.dtd">
<svg version="1.0" xmlns="http://www.w3.org/2000/svg"
 width="512.000000pt" height="512.000000pt" viewBox="0 0 512.000000 512.000000"
 preserveAspectRatio="xMidYMid meet">

<g transform="translate(0.000000,512.000000) scale(0.100000,-0.100000)"
fill="#000000" stroke="none">
<path d="M766 4869 c-337 -37 -609 -275 -698 -609 l-23 -85 0 -1327 0 -1327
21 -28 c11 -15 40 -35 62 -43 37 -13 47 -13 84 0 27 10 50 27 65 49 l23 34 0
1297 c0 1261 1 1299 20 1374 39 152 142 282 279 351 123 62 153 65 652 65 412
0 452 -2 523 -20 176 -45 244 -106 424 -380 88 -133 156 -226 197 -266 120
-118 289 -200 458 -223 49 -7 339 -11 777 -11 468 0 717 -4 752 -11 206 -43
389 -228 428 -434 8 -43 10 -364 8 -1125 l-3 -1065 -27 -80 c-87 -254 -291
-436 -550 -489 -69 -14 -256 -16 -1720 -16 -1568 0 -1645 1 -1683 19 -58 26
-110 88 -124 147 -14 57 -33 -26 257 1086 106 403 181 671 200 711 41 88 143
194 230 240 138 72 19 67 1601 67 816 0 1443 4 1465 10 57 13 88 48 93 107 4
34 0 60 -11 81 -34 66 72 62 -1514 62 -961 0 -1458 -3 -1498 -11 -298 -52
-544 -260 -637 -539 -8 -25 -112 -417 -231 -871 -237 -907 -236 -902 -196
-1030 54 -177 209 -305 395 -330 54 -7 617 -9 1715 -6 1802 4 1675 -1 1861 67
127 46 239 119 345 224 137 138 218 281 266 472 l23 89 0 1095 0 1095 -23 80
c-47 166 -117 280 -242 399 -66 61 -103 87 -184 126 -184 88 -129 83 -1011 90
-861 6 -794 1 -926 72 -93 49 -155 118 -280 314 -195 305 -329 419 -574 485
-76 21 -103 22 -535 25 -250 1 -491 -2 -534 -7z"/>
<path d="M2827 2326 c-71 -49 -486 -386 -501 -408 -22 -30 -20 -96 3 -134 25
-41 81 -67 125 -59 23 5 81 44 173 117 l138 109 5 -468 c4 -328 8 -474 17
-488 54 -93 180 -96 225 -5 16 32 18 77 18 503 l0 468 133 -107 c72 -59 148
-113 167 -121 96 -41 201 74 155 170 -12 25 -86 90 -266 233 -137 110 -258
202 -267 206 -37 15 -90 8 -125 -16z"/>
</g>
</svg>
